<?xml version="1.0" encoding="us-ascii" standalone="no"?>
<svg xmlns="http://www.w3.org/2000/svg" xmlns:xlink="http://www.w3.org/1999/xlink" contentStyleType="text/css"
	 height="471px" preserveAspectRatio="none" style="width:1282px;height:471px;background:#FFFFFF;" version="1.1"
	 viewBox="0 0 1282 471" width="1282px" zoomAndPan="magnify">
	<defs/>
	<g>
		<text fill="#000000" font-family="sans-serif" font-size="14" font-weight="bold" lengthAdjust="spacing"
			  textLength="234" x="522.5" y="32.9951">Weekly schedule: Holky &#353;kola
		</text>
		<line style="stroke:#333333;stroke-width:0.5;" x1="10" x2="10" y1="47.2969" y2="441.375"/>
		<line style="stroke:#333333;stroke-width:0.5;" x1="1270" x2="1270" y1="47.2969" y2="441.375"/>
		<line style="stroke:#333333;stroke-width:0.5;stroke-dasharray:3.0,5.0;" x1="15" x2="15" y1="47.2969"
			  y2="441.375"/>
		<line style="stroke:#333333;stroke-width:0.5;stroke-dasharray:3.0,5.0;" x1="65" x2="65" y1="47.2969"
			  y2="441.375"/>
		<line style="stroke:#333333;stroke-width:0.5;stroke-dasharray:3.0,5.0;" x1="115" x2="115" y1="47.2969"
			  y2="441.375"/>
		<line style="stroke:#333333;stroke-width:0.5;stroke-dasharray:3.0,5.0;" x1="165" x2="165" y1="47.2969"
			  y2="441.375"/>
		<line style="stroke:#333333;stroke-width:0.5;stroke-dasharray:3.0,5.0;" x1="215" x2="215" y1="47.2969"
			  y2="441.375"/>
		<line style="stroke:#333333;stroke-width:0.5;stroke-dasharray:3.0,5.0;" x1="265" x2="265" y1="47.2969"
			  y2="441.375"/>
		<line style="stroke:#333333;stroke-width:0.5;stroke-dasharray:3.0,5.0;" x1="315" x2="315" y1="47.2969"
			  y2="441.375"/>
		<line style="stroke:#333333;stroke-width:0.5;stroke-dasharray:3.0,5.0;" x1="365" x2="365" y1="47.2969"
			  y2="441.375"/>
		<line style="stroke:#333333;stroke-width:0.5;stroke-dasharray:3.0,5.0;" x1="415" x2="415" y1="47.2969"
			  y2="441.375"/>
		<line style="stroke:#333333;stroke-width:0.5;stroke-dasharray:3.0,5.0;" x1="465" x2="465" y1="47.2969"
			  y2="441.375"/>
		<line style="stroke:#333333;stroke-width:0.5;stroke-dasharray:3.0,5.0;" x1="515" x2="515" y1="47.2969"
			  y2="441.375"/>
		<line style="stroke:#333333;stroke-width:0.5;stroke-dasharray:3.0,5.0;" x1="565" x2="565" y1="47.2969"
			  y2="441.375"/>
		<line style="stroke:#333333;stroke-width:0.5;stroke-dasharray:3.0,5.0;" x1="615" x2="615" y1="47.2969"
			  y2="441.375"/>
		<line style="stroke:#333333;stroke-width:0.5;stroke-dasharray:3.0,5.0;" x1="665" x2="665" y1="47.2969"
			  y2="441.375"/>
		<line style="stroke:#333333;stroke-width:0.5;stroke-dasharray:3.0,5.0;" x1="715" x2="715" y1="47.2969"
			  y2="441.375"/>
		<line style="stroke:#333333;stroke-width:0.5;stroke-dasharray:3.0,5.0;" x1="765" x2="765" y1="47.2969"
			  y2="441.375"/>
		<line style="stroke:#333333;stroke-width:0.5;stroke-dasharray:3.0,5.0;" x1="815" x2="815" y1="47.2969"
			  y2="441.375"/>
		<line style="stroke:#333333;stroke-width:0.5;stroke-dasharray:3.0,5.0;" x1="865" x2="865" y1="47.2969"
			  y2="441.375"/>
		<line style="stroke:#333333;stroke-width:0.5;stroke-dasharray:3.0,5.0;" x1="915" x2="915" y1="47.2969"
			  y2="441.375"/>
		<line style="stroke:#333333;stroke-width:0.5;stroke-dasharray:3.0,5.0;" x1="965" x2="965" y1="47.2969"
			  y2="441.375"/>
		<line style="stroke:#333333;stroke-width:0.5;stroke-dasharray:3.0,5.0;" x1="1015" x2="1015" y1="47.2969"
			  y2="441.375"/>
		<line style="stroke:#333333;stroke-width:0.5;stroke-dasharray:3.0,5.0;" x1="1065" x2="1065" y1="47.2969"
			  y2="441.375"/>
		<line style="stroke:#333333;stroke-width:0.5;stroke-dasharray:3.0,5.0;" x1="1115" x2="1115" y1="47.2969"
			  y2="441.375"/>
		<line style="stroke:#333333;stroke-width:0.5;stroke-dasharray:3.0,5.0;" x1="1165" x2="1165" y1="47.2969"
			  y2="441.375"/>
		<line style="stroke:#333333;stroke-width:0.5;stroke-dasharray:3.0,5.0;" x1="1215" x2="1215" y1="47.2969"
			  y2="441.375"/>
		<line style="stroke:#333333;stroke-width:0.5;stroke-dasharray:3.0,5.0;" x1="1265" x2="1265" y1="47.2969"
			  y2="441.375"/>
		<line style="stroke:#333333;stroke-width:0.5;" x1="10" x2="1270" y1="47.2969" y2="47.2969"/>
		<text fill="#333333" font-family="sans-serif" font-size="14" font-weight="bold" lengthAdjust="spacing"
			  textLength="23" x="15" y="60.292">Mo
		</text>
		<line style="stroke:#333333;stroke-width:0.5;" x1="10" x2="39" y1="64.5938" y2="64.5938"/>
		<line style="stroke:#333333;stroke-width:0.5;" x1="39" x2="49" y1="64.5938" y2="47.2969"/>
		<polygon fill="#7B68EE" points="27,69.5938,303,69.5938,315,81.5938,303,93.5938,27,93.5938,15,81.5938"
				 style="stroke:#006400;stroke-width:1.5;"/>
		<polygon fill="#FFA500" points="327,69.5938,353,69.5938,365,81.5938,353,93.5938,327,93.5938,315,81.5938"
				 style="stroke:#006400;stroke-width:1.5;"/>
		<polygon fill="#ADFF2F" points="377,69.5938,753,69.5938,765,81.5938,753,93.5938,377,93.5938,365,81.5938"
				 style="stroke:#006400;stroke-width:1.5;"/>
		<polygon fill="#FFA500" points="777,69.5938,1053,69.5938,1065,81.5938,1053,93.5938,777,93.5938,765,81.5938"
				 style="stroke:#006400;stroke-width:1.5;"/>
		<polygon fill="#7B68EE" points="1077,69.5938,1203,69.5938,1215,81.5938,1203,93.5938,1077,93.5938,1065,81.5938"
				 style="stroke:#006400;stroke-width:1.5;"/>
		<text fill="#333333" font-family="sans-serif" font-size="12" font-weight="bold" lengthAdjust="spacing"
			  textLength="26" x="152" y="85.748">Noc
		</text>
		<text fill="#333333" font-family="sans-serif" font-size="12" font-weight="bold" lengthAdjust="spacing"
			  textLength="79" x="300.5" y="85.748">Komfortn&#237;+
		</text>
		<text fill="#333333" font-family="sans-serif" font-size="12" font-weight="bold" lengthAdjust="spacing"
			  textLength="69" x="530.5" y="85.748">Komfortn&#237;
		</text>
		<text fill="#333333" font-family="sans-serif" font-size="12" font-weight="bold" lengthAdjust="spacing"
			  textLength="79" x="875.5" y="85.748">Komfortn&#237;+
		</text>
		<text fill="#333333" font-family="sans-serif" font-size="12" font-weight="bold" lengthAdjust="spacing"
			  textLength="26" x="1127" y="85.748">Noc
		</text>
		<line style="stroke:#333333;stroke-width:0.5;" x1="10" x2="1270" y1="103.5938" y2="103.5938"/>
		<text fill="#333333" font-family="sans-serif" font-size="14" font-weight="bold" lengthAdjust="spacing"
			  textLength="20" x="15" y="116.5889">Tu
		</text>
		<line style="stroke:#333333;stroke-width:0.5;" x1="10" x2="36" y1="120.8906" y2="120.8906"/>
		<line style="stroke:#333333;stroke-width:0.5;" x1="36" x2="46" y1="120.8906" y2="103.5938"/>
		<polygon fill="#7B68EE" points="27,125.8906,303,125.8906,315,137.8906,303,149.8906,27,149.8906,15,137.8906"
				 style="stroke:#006400;stroke-width:1.5;"/>
		<polygon fill="#FFA500" points="327,125.8906,353,125.8906,365,137.8906,353,149.8906,327,149.8906,315,137.8906"
				 style="stroke:#006400;stroke-width:1.5;"/>
		<polygon fill="#ADFF2F" points="377,125.8906,753,125.8906,765,137.8906,753,149.8906,377,149.8906,365,137.8906"
				 style="stroke:#006400;stroke-width:1.5;"/>
		<polygon fill="#FFA500"
				 points="777,125.8906,1053,125.8906,1065,137.8906,1053,149.8906,777,149.8906,765,137.8906"
				 style="stroke:#006400;stroke-width:1.5;"/>
		<polygon fill="#7B68EE"
				 points="1077,125.8906,1203,125.8906,1215,137.8906,1203,149.8906,1077,149.8906,1065,137.8906"
				 style="stroke:#006400;stroke-width:1.5;"/>
		<text fill="#333333" font-family="sans-serif" font-size="12" font-weight="bold" lengthAdjust="spacing"
			  textLength="26" x="152" y="142.0449">Noc
		</text>
		<text fill="#333333" font-family="sans-serif" font-size="12" font-weight="bold" lengthAdjust="spacing"
			  textLength="79" x="300.5" y="142.0449">Komfortn&#237;+
		</text>
		<text fill="#333333" font-family="sans-serif" font-size="12" font-weight="bold" lengthAdjust="spacing"
			  textLength="69" x="530.5" y="142.0449">Komfortn&#237;
		</text>
		<text fill="#333333" font-family="sans-serif" font-size="12" font-weight="bold" lengthAdjust="spacing"
			  textLength="79" x="875.5" y="142.0449">Komfortn&#237;+
		</text>
		<text fill="#333333" font-family="sans-serif" font-size="12" font-weight="bold" lengthAdjust="spacing"
			  textLength="26" x="1127" y="142.0449">Noc
		</text>
		<line style="stroke:#333333;stroke-width:0.5;" x1="10" x2="1270" y1="159.8906" y2="159.8906"/>
		<text fill="#333333" font-family="sans-serif" font-size="14" font-weight="bold" lengthAdjust="spacing"
			  textLength="25" x="15" y="172.8857">We
		</text>
		<line style="stroke:#333333;stroke-width:0.5;" x1="10" x2="41" y1="177.1875" y2="177.1875"/>
		<line style="stroke:#333333;stroke-width:0.5;" x1="41" x2="51" y1="177.1875" y2="159.8906"/>
		<polygon fill="#7B68EE" points="27,182.1875,303,182.1875,315,194.1875,303,206.1875,27,206.1875,15,194.1875"
				 style="stroke:#006400;stroke-width:1.5;"/>
		<polygon fill="#FFA500" points="327,182.1875,353,182.1875,365,194.1875,353,206.1875,327,206.1875,315,194.1875"
				 style="stroke:#006400;stroke-width:1.5;"/>
		<polygon fill="#ADFF2F" points="377,182.1875,753,182.1875,765,194.1875,753,206.1875,377,206.1875,365,194.1875"
				 style="stroke:#006400;stroke-width:1.5;"/>
		<polygon fill="#FFA500"
				 points="777,182.1875,1053,182.1875,1065,194.1875,1053,206.1875,777,206.1875,765,194.1875"
				 style="stroke:#006400;stroke-width:1.5;"/>
		<polygon fill="#7B68EE"
				 points="1077,182.1875,1203,182.1875,1215,194.1875,1203,206.1875,1077,206.1875,1065,194.1875"
				 style="stroke:#006400;stroke-width:1.5;"/>
		<text fill="#333333" font-family="sans-serif" font-size="12" font-weight="bold" lengthAdjust="spacing"
			  textLength="26" x="152" y="198.3418">Noc
		</text>
		<text fill="#333333" font-family="sans-serif" font-size="12" font-weight="bold" lengthAdjust="spacing"
			  textLength="79" x="300.5" y="198.3418">Komfortn&#237;+
		</text>
		<text fill="#333333" font-family="sans-serif" font-size="12" font-weight="bold" lengthAdjust="spacing"
			  textLength="69" x="530.5" y="198.3418">Komfortn&#237;
		</text>
		<text fill="#333333" font-family="sans-serif" font-size="12" font-weight="bold" lengthAdjust="spacing"
			  textLength="79" x="875.5" y="198.3418">Komfortn&#237;+
		</text>
		<text fill="#333333" font-family="sans-serif" font-size="12" font-weight="bold" lengthAdjust="spacing"
			  textLength="26" x="1127" y="198.3418">Noc
		</text>
		<line style="stroke:#333333;stroke-width:0.5;" x1="10" x2="1270" y1="216.1875" y2="216.1875"/>
		<text fill="#333333" font-family="sans-serif" font-size="14" font-weight="bold" lengthAdjust="spacing"
			  textLength="20" x="15" y="229.1826">Th
		</text>
		<line style="stroke:#333333;stroke-width:0.5;" x1="10" x2="36" y1="233.4844" y2="233.4844"/>
		<line style="stroke:#333333;stroke-width:0.5;" x1="36" x2="46" y1="233.4844" y2="216.1875"/>
		<polygon fill="#7B68EE" points="27,238.4844,303,238.4844,315,250.4844,303,262.4844,27,262.4844,15,250.4844"
				 style="stroke:#006400;stroke-width:1.5;"/>
		<polygon fill="#FFA500" points="327,238.4844,353,238.4844,365,250.4844,353,262.4844,327,262.4844,315,250.4844"
				 style="stroke:#006400;stroke-width:1.5;"/>
		<polygon fill="#ADFF2F" points="377,238.4844,753,238.4844,765,250.4844,753,262.4844,377,262.4844,365,250.4844"
				 style="stroke:#006400;stroke-width:1.5;"/>
		<polygon fill="#FFA500"
				 points="777,238.4844,1053,238.4844,1065,250.4844,1053,262.4844,777,262.4844,765,250.4844"
				 style="stroke:#006400;stroke-width:1.5;"/>
		<polygon fill="#7B68EE"
				 points="1077,238.4844,1203,238.4844,1215,250.4844,1203,262.4844,1077,262.4844,1065,250.4844"
				 style="stroke:#006400;stroke-width:1.5;"/>
		<text fill="#333333" font-family="sans-serif" font-size="12" font-weight="bold" lengthAdjust="spacing"
			  textLength="26" x="152" y="254.6387">Noc
		</text>
		<text fill="#333333" font-family="sans-serif" font-size="12" font-weight="bold" lengthAdjust="spacing"
			  textLength="79" x="300.5" y="254.6387">Komfortn&#237;+
		</text>
		<text fill="#333333" font-family="sans-serif" font-size="12" font-weight="bold" lengthAdjust="spacing"
			  textLength="69" x="530.5" y="254.6387">Komfortn&#237;
		</text>
		<text fill="#333333" font-family="sans-serif" font-size="12" font-weight="bold" lengthAdjust="spacing"
			  textLength="79" x="875.5" y="254.6387">Komfortn&#237;+
		</text>
		<text fill="#333333" font-family="sans-serif" font-size="12" font-weight="bold" lengthAdjust="spacing"
			  textLength="26" x="1127" y="254.6387">Noc
		</text>
		<line style="stroke:#333333;stroke-width:0.5;" x1="10" x2="1270" y1="272.4844" y2="272.4844"/>
		<text fill="#333333" font-family="sans-serif" font-size="14" font-weight="bold" lengthAdjust="spacing"
			  textLength="16" x="15" y="285.4795">Fr
		</text>
		<line style="stroke:#333333;stroke-width:0.5;" x1="10" x2="32" y1="289.7813" y2="289.7813"/>
		<line style="stroke:#333333;stroke-width:0.5;" x1="32" x2="42" y1="289.7813" y2="272.4844"/>
		<polygon fill="#7B68EE" points="27,294.7813,303,294.7813,315,306.7813,303,318.7813,27,318.7813,15,306.7813"
				 style="stroke:#006400;stroke-width:1.5;"/>
		<polygon fill="#FFA500" points="327,294.7813,353,294.7813,365,306.7813,353,318.7813,327,318.7813,315,306.7813"
				 style="stroke:#006400;stroke-width:1.5;"/>
		<polygon fill="#ADFF2F" points="377,294.7813,753,294.7813,765,306.7813,753,318.7813,377,318.7813,365,306.7813"
				 style="stroke:#006400;stroke-width:1.5;"/>
		<polygon fill="#FFA500"
				 points="777,294.7813,1053,294.7813,1065,306.7813,1053,318.7813,777,318.7813,765,306.7813"
				 style="stroke:#006400;stroke-width:1.5;"/>
		<polygon fill="#7B68EE"
				 points="1077,294.7813,1203,294.7813,1215,306.7813,1203,318.7813,1077,318.7813,1065,306.7813"
				 style="stroke:#006400;stroke-width:1.5;"/>
		<text fill="#333333" font-family="sans-serif" font-size="12" font-weight="bold" lengthAdjust="spacing"
			  textLength="26" x="152" y="310.9355">Noc
		</text>
		<text fill="#333333" font-family="sans-serif" font-size="12" font-weight="bold" lengthAdjust="spacing"
			  textLength="79" x="300.5" y="310.9355">Komfortn&#237;+
		</text>
		<text fill="#333333" font-family="sans-serif" font-size="12" font-weight="bold" lengthAdjust="spacing"
			  textLength="69" x="530.5" y="310.9355">Komfortn&#237;
		</text>
		<text fill="#333333" font-family="sans-serif" font-size="12" font-weight="bold" lengthAdjust="spacing"
			  textLength="79" x="875.5" y="310.9355">Komfortn&#237;+
		</text>
		<text fill="#333333" font-family="sans-serif" font-size="12" font-weight="bold" lengthAdjust="spacing"
			  textLength="26" x="1127" y="310.9355">Noc
		</text>
		<line style="stroke:#333333;stroke-width:0.5;" x1="10" x2="1270" y1="328.7813" y2="328.7813"/>
		<text fill="#333333" font-family="sans-serif" font-size="14" font-weight="bold" lengthAdjust="spacing"
			  textLength="19" x="15" y="341.7764">Sa
		</text>
		<line style="stroke:#333333;stroke-width:0.5;" x1="10" x2="35" y1="346.0781" y2="346.0781"/>
		<line style="stroke:#333333;stroke-width:0.5;" x1="35" x2="45" y1="346.0781" y2="328.7813"/>
		<polygon fill="#7B68EE" points="27,351.0781,353,351.0781,365,363.0781,353,375.0781,27,375.0781,15,363.0781"
				 style="stroke:#006400;stroke-width:1.5;"/>
		<polygon fill="#FFA500"
				 points="377,351.0781,1053,351.0781,1065,363.0781,1053,375.0781,377,375.0781,365,363.0781"
				 style="stroke:#006400;stroke-width:1.5;"/>
		<polygon fill="#7B68EE"
				 points="1077,351.0781,1203,351.0781,1215,363.0781,1203,375.0781,1077,375.0781,1065,363.0781"
				 style="stroke:#006400;stroke-width:1.5;"/>
		<text fill="#333333" font-family="sans-serif" font-size="12" font-weight="bold" lengthAdjust="spacing"
			  textLength="26" x="177" y="367.2324">Noc
		</text>
		<text fill="#333333" font-family="sans-serif" font-size="12" font-weight="bold" lengthAdjust="spacing"
			  textLength="79" x="675.5" y="367.2324">Komfortn&#237;+
		</text>
		<text fill="#333333" font-family="sans-serif" font-size="12" font-weight="bold" lengthAdjust="spacing"
			  textLength="26" x="1127" y="367.2324">Noc
		</text>
		<line style="stroke:#333333;stroke-width:0.5;" x1="10" x2="1270" y1="385.0781" y2="385.0781"/>
		<text fill="#333333" font-family="sans-serif" font-size="14" font-weight="bold" lengthAdjust="spacing"
			  textLength="16" x="15" y="398.0732">Fr
		</text>
		<line style="stroke:#333333;stroke-width:0.5;" x1="10" x2="32" y1="402.375" y2="402.375"/>
		<line style="stroke:#333333;stroke-width:0.5;" x1="32" x2="42" y1="402.375" y2="385.0781"/>
		<polygon fill="#7B68EE" points="27,407.375,353,407.375,365,419.375,353,431.375,27,431.375,15,419.375"
				 style="stroke:#006400;stroke-width:1.5;"/>
		<polygon fill="#FFA500" points="377,407.375,1053,407.375,1065,419.375,1053,431.375,377,431.375,365,419.375"
				 style="stroke:#006400;stroke-width:1.5;"/>
		<polygon fill="#7B68EE" points="1077,407.375,1203,407.375,1215,419.375,1203,431.375,1077,431.375,1065,419.375"
				 style="stroke:#006400;stroke-width:1.5;"/>
		<text fill="#333333" font-family="sans-serif" font-size="12" font-weight="bold" lengthAdjust="spacing"
			  textLength="26" x="177" y="423.5293">Noc
		</text>
		<text fill="#333333" font-family="sans-serif" font-size="12" font-weight="bold" lengthAdjust="spacing"
			  textLength="79" x="675.5" y="423.5293">Komfortn&#237;+
		</text>
		<text fill="#333333" font-family="sans-serif" font-size="12" font-weight="bold" lengthAdjust="spacing"
			  textLength="26" x="1127" y="423.5293">Noc
		</text>
		<line style="stroke:#333333;stroke-width:2.0;" x1="15" x2="15" y1="441.375" y2="446.375"/>
		<line style="stroke:#333333;stroke-width:2.0;" x1="65" x2="65" y1="441.375" y2="446.375"/>
		<line style="stroke:#333333;stroke-width:2.0;" x1="115" x2="115" y1="441.375" y2="446.375"/>
		<line style="stroke:#333333;stroke-width:2.0;" x1="165" x2="165" y1="441.375" y2="446.375"/>
		<line style="stroke:#333333;stroke-width:2.0;" x1="215" x2="215" y1="441.375" y2="446.375"/>
		<line style="stroke:#333333;stroke-width:2.0;" x1="265" x2="265" y1="441.375" y2="446.375"/>
		<line style="stroke:#333333;stroke-width:2.0;" x1="315" x2="315" y1="441.375" y2="446.375"/>
		<line style="stroke:#333333;stroke-width:2.0;" x1="365" x2="365" y1="441.375" y2="446.375"/>
		<line style="stroke:#333333;stroke-width:2.0;" x1="415" x2="415" y1="441.375" y2="446.375"/>
		<line style="stroke:#333333;stroke-width:2.0;" x1="465" x2="465" y1="441.375" y2="446.375"/>
		<line style="stroke:#333333;stroke-width:2.0;" x1="515" x2="515" y1="441.375" y2="446.375"/>
		<line style="stroke:#333333;stroke-width:2.0;" x1="565" x2="565" y1="441.375" y2="446.375"/>
		<line style="stroke:#333333;stroke-width:2.0;" x1="615" x2="615" y1="441.375" y2="446.375"/>
		<line style="stroke:#333333;stroke-width:2.0;" x1="665" x2="665" y1="441.375" y2="446.375"/>
		<line style="stroke:#333333;stroke-width:2.0;" x1="715" x2="715" y1="441.375" y2="446.375"/>
		<line style="stroke:#333333;stroke-width:2.0;" x1="765" x2="765" y1="441.375" y2="446.375"/>
		<line style="stroke:#333333;stroke-width:2.0;" x1="815" x2="815" y1="441.375" y2="446.375"/>
		<line style="stroke:#333333;stroke-width:2.0;" x1="865" x2="865" y1="441.375" y2="446.375"/>
		<line style="stroke:#333333;stroke-width:2.0;" x1="915" x2="915" y1="441.375" y2="446.375"/>
		<line style="stroke:#333333;stroke-width:2.0;" x1="965" x2="965" y1="441.375" y2="446.375"/>
		<line style="stroke:#333333;stroke-width:2.0;" x1="1015" x2="1015" y1="441.375" y2="446.375"/>
		<line style="stroke:#333333;stroke-width:2.0;" x1="1065" x2="1065" y1="441.375" y2="446.375"/>
		<line style="stroke:#333333;stroke-width:2.0;" x1="1115" x2="1115" y1="441.375" y2="446.375"/>
		<line style="stroke:#333333;stroke-width:2.0;" x1="1165" x2="1165" y1="441.375" y2="446.375"/>
		<line style="stroke:#333333;stroke-width:2.0;" x1="1215" x2="1215" y1="441.375" y2="446.375"/>
		<line style="stroke:#333333;stroke-width:2.0;" x1="1265" x2="1265" y1="441.375" y2="446.375"/>
		<line style="stroke:#333333;stroke-width:2.0;" x1="15" x2="1265" y1="441.375" y2="441.375"/>
		<text fill="#333333" font-family="sans-serif" font-size="11" lengthAdjust="spacing" textLength="43" x="-6.5"
			  y="457.5854">0:00:00
		</text>
		<text fill="#333333" font-family="sans-serif" font-size="11" lengthAdjust="spacing" textLength="43" x="293.5"
			  y="457.5854">6:00:00
		</text>
		<text fill="#333333" font-family="sans-serif" font-size="11" lengthAdjust="spacing" textLength="43" x="343.5"
			  y="457.5854">7:00:00
		</text>
		<text fill="#333333" font-family="sans-serif" font-size="11" lengthAdjust="spacing" textLength="50" x="740"
			  y="457.5854">15:00:00
		</text>
		<text fill="#333333" font-family="sans-serif" font-size="11" lengthAdjust="spacing" textLength="50" x="1040"
			  y="457.5854">21:00:00
		</text>
		<text fill="#333333" font-family="sans-serif" font-size="11" lengthAdjust="spacing" textLength="50" x="1190"
			  y="457.5854">24:00:00
		</text><!--SRC=[rO_DQi90483l-nH3FFQInFo09-b11R4NXU1noOvcoRW3-K6az67w07qAyRrCtCCMMggNqWRszCt7p7wDRWWXGopf17LUe6e99x1WAazmUI-Pf10vcrpN2DwAFP0rAD-XJMjHu5265eMVhCAYiKEpogB8eRMqAFvg9K9CkxF-nEyVw1gy5yuz6ArGwVQm9jdWCxNO6pyBYHEMVDXnrPZpnrCdSYND7aNwtRmRpoj4iqKYFeeWlhCa3Evz8unkARtnMcYbqBprYS43YV-x81nymNZm1T7W2-872jBVEfxysV4h]-->
	</g>
</svg>
